<mxfile host="app.diagrams.net" modified="2024-06-10T06:08:03.884Z" agent="Mozilla/5.0 (Windows NT 10.0; Win64; x64) AppleWebKit/537.36 (KHTML, like Gecko) Chrome/125.0.0.0 Safari/537.36" etag="Z8CDta-fzY9MEpesbST8" version="24.5.2" type="device">
  <diagram name="Page-1" id="RgB4iuCM7mwgBmCv5fRL">
    <mxGraphModel dx="1674" dy="738" grid="1" gridSize="10" guides="1" tooltips="1" connect="1" arrows="1" fold="1" page="1" pageScale="1" pageWidth="827" pageHeight="1169" math="0" shadow="0">
      <root>
        <mxCell id="0" />
        <mxCell id="1" parent="0" />
        <mxCell id="tua7dUTY11G1IQ0qfPP2-1" value="&lt;p style=&quot;margin:0px;margin-top:4px;text-align:center;&quot;&gt;&lt;i&gt;ble&lt;/i&gt;&lt;/p&gt;&lt;hr size=&quot;1&quot;&gt;&lt;p style=&quot;margin:0px;margin-left:4px;&quot;&gt;-&amp;nbsp;&lt;span style=&quot;background-color: initial;&quot;&gt;bleThread:&amp;nbsp;&lt;/span&gt;&lt;span style=&quot;background-color: initial;&quot;&gt;k_thread&amp;nbsp;&lt;/span&gt;&lt;/p&gt;&lt;p style=&quot;margin:0px;margin-left:4px;&quot;&gt;- work: k_work&lt;br&gt;&lt;/p&gt;&lt;p style=&quot;margin:0px;margin-left:4px;&quot;&gt;&lt;br&gt;&lt;/p&gt;&lt;p style=&quot;margin:0px;margin-left:4px;&quot;&gt;- snes:&amp;nbsp;snes_client&lt;/p&gt;&lt;p style=&quot;margin:0px;margin-left:4px;&quot;&gt;-&amp;nbsp;snes_callbacks:&amp;nbsp;snes_client_cb&lt;/p&gt;&lt;p style=&quot;margin:0px;margin-left:4px;&quot;&gt;-&amp;nbsp;snes_init_params:&amp;nbsp;snes_client_init_param&lt;/p&gt;&lt;p style=&quot;margin:0px;margin-left:4px;&quot;&gt;-&amp;nbsp;dm_callbacks:&amp;nbsp;bt_gatt_dm_cb&lt;/p&gt;&lt;p style=&quot;margin:0px;margin-left:4px;&quot;&gt;&lt;br&gt;&lt;/p&gt;&lt;p style=&quot;margin:0px;margin-left:4px;&quot;&gt;-&amp;nbsp;connectedMonkey: Monkey&lt;/p&gt;&lt;p style=&quot;margin:0px;margin-left:4px;&quot;&gt;-&amp;nbsp;monkey_src_UUID:&amp;nbsp;bt_uuid_128&amp;nbsp;&lt;/p&gt;&lt;hr size=&quot;1&quot;&gt;&lt;p style=&quot;margin:0px;margin-left:4px;&quot;&gt;&lt;span style=&quot;background-color: initial;&quot;&gt;+ ble_thread_init():&amp;nbsp;&lt;/span&gt;&lt;span style=&quot;background-color: initial;&quot;&gt;void&lt;/span&gt;&lt;br&gt;&lt;/p&gt;&lt;p style=&quot;margin:0px;margin-left:4px;&quot;&gt;+ ble_init(): int&lt;/p&gt;&lt;p style=&quot;margin:0px;margin-left:4px;&quot;&gt;+ble_fem_init(): void&lt;/p&gt;&lt;p style=&quot;margin:0px;margin-left:4px;&quot;&gt;&lt;br&gt;&lt;/p&gt;&lt;p style=&quot;margin:0px;margin-left:4px;&quot;&gt;+ ble_controller(&lt;span style=&quot;background-color: initial;&quot;&gt;work:&lt;/span&gt;&lt;span style=&quot;background-color: initial;&quot;&gt;struct k_work*): void&lt;/span&gt;&lt;/p&gt;&lt;p style=&quot;margin:0px;margin-left:4px;&quot;&gt;+ ble_start_scan(): int&lt;/p&gt;&lt;p style=&quot;margin:0px;margin-left:4px;&quot;&gt;+ ble_stop_scan(): int&lt;/p&gt;&lt;p style=&quot;margin:0px;margin-left:4px;&quot;&gt;&lt;br&gt;&lt;/p&gt;&lt;p style=&quot;margin:0px;margin-left:4px;&quot;&gt;+ ble_device_found_cb(&lt;span style=&quot;background-color: initial;&quot;&gt;addr:&lt;/span&gt;&lt;span style=&quot;background-color: initial;&quot;&gt;const bt_addr_le_t*,&amp;nbsp;&lt;/span&gt;&lt;span style=&quot;background-color: initial;&quot;&gt;rssi:&lt;/span&gt;&lt;span style=&quot;background-color: initial;&quot;&gt;int8_t,&amp;nbsp;&lt;/span&gt;&lt;span style=&quot;background-color: initial;&quot;&gt;type:&lt;/span&gt;&lt;span style=&quot;background-color: initial;&quot;&gt;uint8_t,&amp;nbsp;&lt;/span&gt;&lt;span style=&quot;background-color: initial;&quot;&gt;ad:&lt;/span&gt;&lt;span style=&quot;background-color: initial;&quot;&gt;struct net_buf_simple*): void&lt;/span&gt;&lt;/p&gt;&lt;p style=&quot;margin:0px;margin-left:4px;&quot;&gt;+ ble_remove_device(): void&lt;/p&gt;&lt;p style=&quot;margin:0px;margin-left:4px;&quot;&gt;+ ble_manufacturer_data_cb(&lt;span style=&quot;background-color: initial;&quot;&gt;data:&lt;/span&gt;&lt;span style=&quot;background-color: initial;&quot;&gt;struct bt_data*,&amp;nbsp;&lt;/span&gt;&lt;span style=&quot;background-color: initial;&quot;&gt;user_data:&lt;/span&gt;&lt;span style=&quot;background-color: initial;&quot;&gt;void*): bool&lt;/span&gt;&lt;/p&gt;&lt;p style=&quot;margin:0px;margin-left:4px;&quot;&gt;+ ble_data_cb(&lt;span style=&quot;background-color: initial;&quot;&gt;data:&lt;/span&gt;&lt;span style=&quot;background-color: initial;&quot;&gt;struct bt_data*,&amp;nbsp;&lt;/span&gt;&lt;span style=&quot;background-color: initial;&quot;&gt;user_data:&lt;/span&gt;&lt;span style=&quot;background-color: initial;&quot;&gt;void*): bool&lt;/span&gt;&lt;/p&gt;&lt;p style=&quot;margin:0px;margin-left:4px;&quot;&gt;+ ble_parse_device_name(&lt;span style=&quot;background-color: initial;&quot;&gt;name:&lt;/span&gt;&lt;span style=&quot;background-color: initial;&quot;&gt;char*):&amp;nbsp;&lt;/span&gt;&lt;span style=&quot;background-color: initial;&quot;&gt;int&lt;/span&gt;&lt;span style=&quot;background-color: initial;&quot;&gt;&amp;nbsp;&lt;/span&gt;&lt;/p&gt;&lt;p style=&quot;margin:0px;margin-left:4px;&quot;&gt;+ ble_connect(&lt;span style=&quot;background-color: initial;&quot;&gt;monkey:&lt;/span&gt;&lt;span style=&quot;background-color: initial;&quot;&gt;struct Monkey): void&lt;/span&gt;&lt;/p&gt;&lt;p style=&quot;margin:0px;margin-left:4px;&quot;&gt;+ ble_connected_cb(&lt;span style=&quot;background-color: initial;&quot;&gt;conn:&lt;/span&gt;&lt;span style=&quot;background-color: initial;&quot;&gt;struct bt_conn*,&amp;nbsp;&lt;/span&gt;&lt;span style=&quot;background-color: initial;&quot;&gt;err:&lt;/span&gt;&lt;span style=&quot;background-color: initial;&quot;&gt;uint8_t)&lt;/span&gt;&lt;span style=&quot;background-color: initial;&quot;&gt;: void&lt;/span&gt;&lt;/p&gt;&lt;p style=&quot;margin:0px;margin-left:4px;&quot;&gt;+ ble_disconnect()&lt;span style=&quot;background-color: initial;&quot;&gt;: void&lt;/span&gt;&lt;/p&gt;&lt;p style=&quot;margin:0px;margin-left:4px;&quot;&gt;+ ble_disconnected_cb(&lt;span style=&quot;background-color: initial;&quot;&gt;conn:&lt;/span&gt;&lt;span style=&quot;background-color: initial;&quot;&gt;struct bt_conn*,&amp;nbsp;&lt;/span&gt;&lt;span style=&quot;background-color: initial;&quot;&gt;reason:&lt;/span&gt;&lt;span style=&quot;background-color: initial;&quot;&gt;uint8_t)&lt;/span&gt;&lt;span style=&quot;background-color: initial;&quot;&gt;: void&lt;/span&gt;&lt;/p&gt;&lt;p style=&quot;margin:0px;margin-left:4px;&quot;&gt;&lt;br&gt;&lt;/p&gt;&lt;p style=&quot;margin:0px;margin-left:4px;&quot;&gt;+ ble_discovery_complete_cb(&lt;span style=&quot;background-color: initial;&quot;&gt;dm:&lt;/span&gt;&lt;span style=&quot;background-color: initial;&quot;&gt;struct bt_gatt_dm*,&amp;nbsp;&lt;/span&gt;&lt;span style=&quot;background-color: initial;&quot;&gt;context:&lt;/span&gt;&lt;span style=&quot;background-color: initial;&quot;&gt;void*)&lt;/span&gt;&lt;span style=&quot;background-color: initial;&quot;&gt;: void&lt;/span&gt;&lt;/p&gt;&lt;p style=&quot;margin:0px;margin-left:4px;&quot;&gt;+ ble_discovery_service_not_found_cb(&lt;span style=&quot;background-color: initial;&quot;&gt;dm:&lt;/span&gt;&lt;span style=&quot;background-color: initial;&quot;&gt;struct bt_gatt_dm*,&amp;nbsp;&lt;/span&gt;&lt;span style=&quot;background-color: initial;&quot;&gt;context:&lt;/span&gt;&lt;span style=&quot;background-color: initial;&quot;&gt;void*)&lt;/span&gt;&lt;span style=&quot;background-color: initial;&quot;&gt;: void&lt;/span&gt;&lt;/p&gt;&lt;p style=&quot;margin:0px;margin-left:4px;&quot;&gt;&lt;br&gt;&lt;/p&gt;&lt;p style=&quot;margin: 0px 0px 0px 4px;&quot;&gt;+ ble_open_collar(): void&lt;/p&gt;&lt;p style=&quot;margin: 0px 0px 0px 4px;&quot;&gt;+ ble_reset_collar()&lt;span style=&quot;background-color: initial;&quot;&gt;: void&lt;/span&gt;&lt;/p&gt;&lt;p style=&quot;margin: 0px 0px 0px 4px;&quot;&gt;+ ble_toggle_recording()&lt;span style=&quot;background-color: initial;&quot;&gt;: void&lt;/span&gt;&lt;/p&gt;&lt;p style=&quot;margin:0px;margin-left:4px;&quot;&gt;+ ble_data_written_cb(&lt;span style=&quot;background-color: initial;&quot;&gt;snes:&lt;/span&gt;&lt;span style=&quot;background-color: initial;&quot;&gt;struct snes_client*,&amp;nbsp;&lt;/span&gt;&lt;span style=&quot;background-color: initial;&quot;&gt;err:&lt;/span&gt;&lt;span style=&quot;background-color: initial;&quot;&gt;uint8_t,&amp;nbsp;&lt;/span&gt;&lt;span style=&quot;background-color: initial;&quot;&gt;data:&lt;/span&gt;&lt;span style=&quot;background-color: initial;&quot;&gt;const uint8_t*,&amp;nbsp;&lt;/span&gt;&lt;span style=&quot;background-color: initial;&quot;&gt;len:&lt;/span&gt;&lt;span style=&quot;background-color: initial;&quot;&gt;uint16_t):&amp;nbsp;&lt;/span&gt;&lt;span style=&quot;background-color: initial;&quot;&gt;void&lt;/span&gt;&lt;span style=&quot;background-color: initial;&quot;&gt;&amp;nbsp;&lt;/span&gt;&lt;/p&gt;&lt;p style=&quot;margin:0px;margin-left:4px;&quot;&gt;&lt;span style=&quot;background-color: initial;&quot;&gt;&lt;br&gt;&lt;/span&gt;&lt;/p&gt;&lt;p style=&quot;margin:0px;margin-left:4px;&quot;&gt;+ ble_status_received_cb(&lt;span style=&quot;background-color: initial;&quot;&gt;snes:&lt;/span&gt;&lt;span style=&quot;background-color: initial;&quot;&gt;struct snes_client*,&amp;nbsp;&lt;/span&gt;&lt;span style=&quot;background-color: initial;&quot;&gt;data:&lt;/span&gt;&lt;span style=&quot;background-color: initial;&quot;&gt;const uint8_t*,&amp;nbsp;&lt;/span&gt;&lt;span style=&quot;background-color: initial;&quot;&gt;len:&lt;/span&gt;&lt;span style=&quot;background-color: initial;&quot;&gt;uint16_t):&amp;nbsp;&lt;/span&gt;&lt;span style=&quot;background-color: initial;&quot;&gt;uint8_t&lt;/span&gt;&lt;span style=&quot;background-color: initial;&quot;&gt;&amp;nbsp;&lt;/span&gt;&lt;/p&gt;&lt;p style=&quot;margin:0px;margin-left:4px;&quot;&gt;+ ble_dor_received_cb(&lt;span style=&quot;background-color: initial;&quot;&gt;snes:&lt;/span&gt;&lt;span style=&quot;background-color: initial;&quot;&gt;struct snes_client*,&amp;nbsp;&lt;/span&gt;&lt;span style=&quot;background-color: initial;&quot;&gt;data:&lt;/span&gt;&lt;span style=&quot;background-color: initial;&quot;&gt;const uint8_t*,&amp;nbsp;&lt;/span&gt;&lt;span style=&quot;background-color: initial;&quot;&gt;len:&lt;/span&gt;&lt;span style=&quot;background-color: initial;&quot;&gt;uint16_t)&lt;/span&gt;&lt;span style=&quot;background-color: initial;&quot;&gt;:&amp;nbsp;&lt;/span&gt;&lt;span style=&quot;background-color: initial;&quot;&gt;uint8_t&lt;/span&gt;&lt;span style=&quot;background-color: initial;&quot;&gt;&amp;nbsp;&lt;/span&gt;&lt;/p&gt;&lt;p style=&quot;margin:0px;margin-left:4px;&quot;&gt;+ ble_device_id_received_cb(&lt;span style=&quot;background-color: initial;&quot;&gt;snes:&lt;/span&gt;&lt;span style=&quot;background-color: initial;&quot;&gt;struct snes_client*,&amp;nbsp;&lt;/span&gt;&lt;span style=&quot;background-color: initial;&quot;&gt;data:&lt;/span&gt;&lt;span style=&quot;background-color: initial;&quot;&gt;const uint8_t*,&amp;nbsp;&lt;/span&gt;&lt;span style=&quot;background-color: initial;&quot;&gt;len:&lt;/span&gt;&lt;span style=&quot;background-color: initial;&quot;&gt;uint16_t)&lt;/span&gt;&lt;span style=&quot;background-color: initial;&quot;&gt;:&amp;nbsp;&lt;/span&gt;&lt;span style=&quot;background-color: initial;&quot;&gt;uint8_t&lt;/span&gt;&lt;span style=&quot;background-color: initial;&quot;&gt;&amp;nbsp;&lt;/span&gt;&lt;/p&gt;&lt;p style=&quot;margin:0px;margin-left:4px;&quot;&gt;+ ble_mic_gain_received_cb(&lt;span style=&quot;background-color: initial;&quot;&gt;snes:&lt;/span&gt;&lt;span style=&quot;background-color: initial;&quot;&gt;struct snes_client*,&amp;nbsp;&lt;/span&gt;&lt;span style=&quot;background-color: initial;&quot;&gt;data:&lt;/span&gt;&lt;span style=&quot;background-color: initial;&quot;&gt;const uint8_t*,&amp;nbsp;&lt;/span&gt;&lt;span style=&quot;background-color: initial;&quot;&gt;len:&lt;/span&gt;&lt;span style=&quot;background-color: initial;&quot;&gt;uint16_t)&lt;/span&gt;&lt;span style=&quot;background-color: initial;&quot;&gt;:&amp;nbsp;&lt;/span&gt;&lt;span style=&quot;background-color: initial;&quot;&gt;uint8_t&lt;/span&gt;&lt;span style=&quot;background-color: initial;&quot;&gt;&amp;nbsp;&lt;/span&gt;&lt;/p&gt;&lt;p style=&quot;margin:0px;margin-left:4px;&quot;&gt;+ ble_status_unsubscribed_cb(&lt;span style=&quot;background-color: initial;&quot;&gt;snes:&lt;/span&gt;&lt;span style=&quot;background-color: initial;&quot;&gt;struct snes_client*): void&lt;/span&gt;&lt;/p&gt;&lt;p style=&quot;margin:0px;margin-left:4px;&quot;&gt;&lt;span style=&quot;background-color: initial;&quot;&gt;+ ble_dor_unsubscribed_cb(&lt;/span&gt;&lt;span style=&quot;background-color: initial;&quot;&gt;snes:&lt;/span&gt;&lt;span style=&quot;background-color: initial;&quot;&gt;struct snes_client*&lt;/span&gt;&lt;span style=&quot;background-color: initial;&quot;&gt;)&lt;/span&gt;&lt;span style=&quot;background-color: initial;&quot;&gt;: void&lt;/span&gt;&lt;/p&gt;&lt;p style=&quot;margin:0px;margin-left:4px;&quot;&gt;+ ble_device_id_unsubscribed_cb(&lt;span style=&quot;background-color: initial;&quot;&gt;snes:&lt;/span&gt;&lt;span style=&quot;background-color: initial;&quot;&gt;struct snes_client*&lt;/span&gt;)&lt;span style=&quot;background-color: initial;&quot;&gt;: void&lt;/span&gt;&lt;/p&gt;&lt;p style=&quot;margin:0px;margin-left:4px;&quot;&gt;+ ble_mic_gain_unsubscribed_cb(&lt;span style=&quot;background-color: initial;&quot;&gt;snes:&lt;/span&gt;&lt;span style=&quot;background-color: initial;&quot;&gt;struct snes_client*&lt;/span&gt;)&lt;span style=&quot;background-color: initial;&quot;&gt;: void&lt;/span&gt;&lt;/p&gt;&lt;p style=&quot;margin:0px;margin-left:4px;&quot;&gt;&lt;br&gt;&lt;/p&gt;&lt;p style=&quot;margin:0px;margin-left:4px;&quot;&gt;&lt;br&gt;&lt;/p&gt;" style="verticalAlign=top;align=left;overflow=fill;fontSize=12;fontFamily=Helvetica;html=1;rounded=0;shadow=0;comic=0;labelBackgroundColor=none;strokeWidth=1" vertex="1" parent="1">
          <mxGeometry x="140" y="400" width="600" height="690" as="geometry" />
        </mxCell>
      </root>
    </mxGraphModel>
  </diagram>
</mxfile>
